HIERARCHY
ROOT Hips
{
	OFFSET 0.00000 0.00000 0.00000
	CHANNELS 6 Xposition Yposition Zposition Zrotation Yrotation Xrotation 
	JOINT LHipJoint
	{
		OFFSET 0 0 0
		CHANNELS 3 Zrotation Yrotation Xrotation
		JOINT LeftHip
		{
			OFFSET 1.53139 -1.83434 0.76626
			CHANNELS 3 Zrotation Yrotation Xrotation
			JOINT LeftKnee
			{
				OFFSET 2.56112 -7.03663 0.00000
				CHANNELS 3 Zrotation Yrotation Xrotation
				JOINT LeftAnkle
				{
					OFFSET 2.59983 -7.14299 0.00000
					CHANNELS 3 Zrotation Yrotation Xrotation
					JOINT LeftToe
					{
						OFFSET 0.13742 -0.37757 2.00054
						CHANNELS 3 Zrotation Yrotation Xrotation
						End Site
						{
							OFFSET 0.00000 -0.00000 1.02897
						}
					}
				}
			}
		}
	}
	JOINT RHipJoint
	{
		OFFSET 0 0 0
		CHANNELS 3 Zrotation Yrotation Xrotation
		JOINT RightHip
		{
			OFFSET -1.40122 -1.83435 0.76627
			CHANNELS 3 Zrotation Yrotation Xrotation
			JOINT RightKnee
			{
				OFFSET -2.54052 -6.98003 0.00000
				CHANNELS 3 Zrotation Yrotation Xrotation
				JOINT RightAnkle
				{
					OFFSET -2.63179 -7.23079 0.00000
					CHANNELS 3 Zrotation Yrotation Xrotation
					JOINT RightToe
					{
						OFFSET -0.24131 -0.66299 2.03908
						CHANNELS 3 Zrotation Yrotation Xrotation
						End Site
						{
							OFFSET -0.00000 -0.00000 1.07391
						}
					}
				}
			}
		}
	}
	JOINT lowerback
	{
		OFFSET 0 0 0
		CHANNELS 3 Zrotation Yrotation Xrotation
		JOINT Chest
		{
			OFFSET 0.01174 2.10302 -0.29778
			CHANNELS 3 Zrotation Yrotation Xrotation
			JOINT Chest2
			{
				OFFSET 0.00772 2.13227 -0.01247
				CHANNELS 3 Zrotation Yrotation Xrotation
				JOINT lowerneck
				{
					OFFSET 0 0 0
					CHANNELS 3 Zrotation Yrotation Xrotation
					JOINT Neck
					{
						OFFSET -0.09219 1.60848 0.31481
						CHANNELS 3 Zrotation Yrotation Xrotation
						JOINT Head
						{
							OFFSET 0.13974 1.65456 -0.31134
							CHANNELS 3 Zrotation Yrotation Xrotation
							End Site
							{
								OFFSET 0.04742 1.69515 -0.14578
							}
						}
					}
				}
				JOINT LeftCollar
				{
					OFFSET 0 0 0
					CHANNELS 3 Zrotation Yrotation Xrotation
					JOINT LeftShoulder
					{
						OFFSET 3.24909 1.02882 -0.23993
CHANNELS 3 Zrotation Xrotation Yrotation
						JOINT LeftElbow
						{
OFFSET 0 -5.329550 -0.000000
CHANNELS 3 Zrotation Xrotation Yrotation
							JOINT LeftWrist
							{
OFFSET 0 -3.692320 -0.000000
CHANNELS 3 Zrotation Xrotation Yrotation
								JOINT lhand
								{
									OFFSET 0 0 0
CHANNELS 3 Zrotation Xrotation Yrotation
									JOINT LFingers
									{
OFFSET 0 -0.536600 -0.000000
CHANNELS 3 Zrotation Xrotation Yrotation
										End Site
										{
OFFSET 0 -0.432620 -0.000000
										}
									}
								}
								JOINT LThumb
								{
OFFSET 0 0.000000 0.000000
CHANNELS 3 Zrotation Xrotation Yrotation
									End Site
									{
OFFSET 0 -0.439220 0.439220
									}
								}
							}
						}
					}
				}
				JOINT RightCollar
				{
					OFFSET 0 0 0
					CHANNELS 3 Zrotation Yrotation Xrotation
					JOINT RightShoulder
					{
						OFFSET -3.21387 0.93002 -0.34594
CHANNELS 3 Zrotation Xrotation Yrotation
						JOINT RightElbow
						{
OFFSET 0 -5.234310 0.000000
CHANNELS 3 Zrotation Xrotation Yrotation
							JOINT RightWrist
							{
OFFSET 0 -3.553010 -0.000000
CHANNELS 3 Zrotation Xrotation Yrotation
								JOINT rhand
								{
									OFFSET 0 0 0
CHANNELS 3 Zrotation Xrotation Yrotation
									JOINT RFingers
									{
OFFSET 0 -0.772520 -0.000000
CHANNELS 3 Zrotation Xrotation Yrotation
										End Site
										{
OFFSET 0 -0.622830 -0.000000
										}
									}
								}
								JOINT RThumb
								{
OFFSET 0 0.000000 0.000000
CHANNELS 3 Zrotation Xrotation Yrotation
									End Site
									{
OFFSET 0 -0.632340 0.632340
									}
								}
							}
						}
					}
				}
			}
		}
	}
}
MOTION
Frames: 7
Frame Time: 0.008333333333333333
17.690385 17.528868 -9.134033 -716.741998 5.396825 355.367220 0.000000 0.000000 0.000000 -15.756620 -15.187705 0.829851 1.308589 7.246276 20.447118 -4.466347 -35.248758 5.683976 0.040488 1.204659 3.313068 0.000000 0.000000 0.000000 17.538309 20.170957 -4.767892 -4.433495 -12.715925 38.314217 1.906206 31.586253 -11.041778 -0.429419 -4.205358 11.655117 -2.384011 0.627572 11.773227 0.518514 0.557954 1.414651 1.798943 0.328721 -5.147995 -12.982370 -6.139396 -18.772869 9.521224 -8.077791 34.312145 4.859963 -3.767088 16.479009 0.000000 0.000000 0.000000 5.543515 6.371306 -13.156506 13.072539 -21.393349 2.479734 19.593417 19.888840 -26.819831 0.000000 0.000000 0.000000 -7.125000 0.000000 0.000000 -11.773883 57.810590 3.730290 0.000000 0.000000 0.000000 -6.585421 -0.622827 15.184546 -22.105597 -33.095662 -6.643673 -18.580892 -10.769989 -4.893567 0.000000 0.000000 0.000000 7.125000 0.000000 0.000000 6.051704 24.818285 2.968535
18.288054 17.581085 -9.170460 -713.567529 0.029971 355.557000 0.000000 0.000000 0.000000 -21.617857 -13.275667 1.658928 1.220204 7.006505 19.734527 -2.968314 -30.858487 -0.104882 0.011459 -0.687346 -1.888934 0.000000 0.000000 0.000000 11.815233 20.456156 -6.593006 -4.590483 -12.907240 39.022212 1.165859 29.898740 -14.189352 -0.005271 0.215560 -0.592342 -5.594945 -0.378168 11.836895 0.055225 -1.235600 1.026157 3.416842 -0.478202 -5.445711 -12.735586 -6.498647 -18.847036 9.233547 -8.769516 34.907622 4.559674 -4.096822 16.885699 0.000000 0.000000 0.000000 7.052631 5.585495 -13.724344 13.043532 -21.350975 2.469094 17.093779 21.557810 -30.173034 0.000000 0.000000 0.000000 -7.125000 0.000000 0.000000 -16.601207 60.512153 6.428969 0.000000 0.000000 0.000000 -7.498512 -0.855423 5.173578 -20.176674 -30.854540 -5.621649 -20.565034 -12.827506 -4.026389 0.000000 0.000000 0.000000 7.125000 0.000000 0.000000 4.583255 25.677496 2.151115
18.795671 17.673039 -9.184710 -714.727543 -8.198940 355.635773 0.000000 0.000000 0.000000 -21.551857 -9.667481 1.401358 1.162367 6.844346 19.255085 -2.033810 -27.057707 -2.700653 0.012779 -0.717204 -1.971064 0.000000 0.000000 0.000000 12.665901 18.351551 -8.808627 -4.411098 -12.688168 38.212179 -0.683952 17.380458 -17.976273 -0.122621 2.254987 -6.211059 -4.233938 -0.385439 11.366466 0.590225 -1.016826 1.022780 3.167796 -0.403442 -5.221133 -12.819716 -6.687376 -18.106312 10.162414 -9.440597 33.481588 4.786157 -4.292535 16.157989 0.000000 0.000000 0.000000 8.918552 4.669355 -14.822367 14.579915 -23.557391 3.056165 13.382843 19.757243 -29.673931 0.000000 0.000000 0.000000 -7.125000 0.000000 0.000000 -20.159859 59.180080 7.193683 0.000000 0.000000 0.000000 -7.831904 0.713134 0.625968 -20.641073 -31.406922 -5.861807 -21.825091 -14.885241 -4.498435 0.000000 0.000000 0.000000 7.125000 0.000000 0.000000 3.627168 25.134994 1.746501
19.185413 17.729266 -9.222360 -714.400182 -16.469339 355.517735 0.000000 0.000000 0.000000 -22.858931 -6.228358 1.926444 0.911465 6.083366 17.026456 -1.091488 -21.966127 -5.213715 0.086940 -1.901507 -5.233437 0.000000 0.000000 0.000000 12.438694 11.694429 -13.173323 -4.781354 -13.133156 39.869206 -1.216600 10.404721 -19.945616 -0.150311 2.490542 -6.863862 -4.597705 -0.288909 11.598177 0.565080 -0.954710 0.850872 3.344337 -0.354977 -5.532392 -12.834170 -6.708182 -17.685021 10.837090 -9.797024 32.832251 4.984022 -4.390929 15.846191 0.000000 0.000000 0.000000 11.088667 4.290338 -15.806414 16.590658 -26.314967 3.904139 15.736012 15.932006 -30.134246 0.000000 0.000000 0.000000 -7.125000 0.000000 0.000000 -17.987890 60.166314 6.784941 0.000000 0.000000 0.000000 -8.310628 2.166516 2.373522 -20.099175 -30.761642 -5.581957 -20.819740 -12.748817 -4.382368 0.000000 0.000000 0.000000 7.125000 0.000000 0.000000 4.384439 25.291286 2.097144
19.478264 17.753414 -9.250888 -713.067134 -24.473077 354.695280 0.000000 0.000000 0.000000 -24.890309 -3.086214 2.254782 0.752839 5.541806 15.460568 -0.393077 -16.752288 -7.362304 0.185021 -2.769827 -7.638599 0.000000 0.000000 0.000000 12.284109 3.590732 -17.336944 -5.735331 -14.166595 43.909445 -1.423663 4.589606 -21.528004 -0.103642 1.974196 -5.437269 -5.710657 -0.174098 11.693093 0.241611 -0.978000 0.791360 3.638545 -0.340319 -5.635041 -12.934131 -6.581207 -17.931031 10.721477 -9.638989 33.356811 5.000412 -4.378996 16.133019 0.000000 0.000000 0.000000 12.543014 3.772656 -14.633809 17.686324 -27.753605 4.402182 19.751226 16.022475 -30.056687 0.000000 0.000000 0.000000 -7.125000 0.000000 0.000000 -13.558144 61.054173 5.365922 0.000000 0.000000 0.000000 -7.517536 3.019540 3.540171 -19.130222 -29.580165 -5.094959 -18.756674 -8.438602 -6.010616 0.000000 0.000000 0.000000 7.125000 0.000000 0.000000 5.892543 23.640883 3.050723
19.682329 17.773854 -9.257153 -713.337556 -32.950800 354.651553 0.000000 0.000000 0.000000 -24.772033 0.144452 1.293642 0.761327 5.572336 15.548428 0.080806 -12.211677 -9.632425 0.304830 -3.549123 -9.811423 0.000000 0.000000 0.000000 14.385130 -3.756347 -20.302752 -6.461597 -14.861173 46.807127 -1.317489 -4.966435 -23.989562 -0.388142 -3.995549 11.064674 -4.669875 0.026138 11.210539 0.113666 -0.559647 0.799003 2.842202 -0.169174 -5.410491 -12.817241 -6.488530 -17.970752 10.334337 -9.474811 33.472828 4.836208 -4.371003 16.132202 0.000000 0.000000 0.000000 14.073605 2.509688 -14.006860 17.827373 -27.935542 4.468079 22.312713 15.327872 -29.707359 0.000000 0.000000 0.000000 -7.125000 0.000000 0.000000 -10.445160 61.342364 4.185521 0.000000 0.000000 0.000000 -5.501589 3.626454 3.707224 -17.954389 -28.098673 -4.527741 -17.784918 -6.352197 -5.654643 0.000000 0.000000 0.000000 7.125000 0.000000 0.000000 6.621507 24.048045 3.370086
19.774456 17.759508 -9.252255 -712.487543 -40.927393 354.551868 0.000000 0.000000 0.000000 -25.646853 1.622709 0.335806 0.782930 5.649044 15.769369 0.447489 -6.658843 -12.095183 0.268814 -3.335049 -9.212996 0.000000 0.000000 0.000000 15.246619 -9.403931 -22.443023 -6.495096 -14.891443 46.937621 -1.192889 -9.199871 -25.854496 -1.374943 -7.420087 20.966223 -4.990496 0.045402 10.488224 0.158513 -0.540183 0.403451 3.061590 -0.143249 -5.421915 -12.995891 -6.207428 -18.659107 10.115042 -8.948710 34.048500 4.892981 -4.220281 16.492261 0.000000 0.000000 0.000000 13.613503 2.349090 -12.517458 17.623988 -27.673010 4.373236 23.124886 15.365087 -27.168740 0.000000 0.000000 0.000000 -7.125000 0.000000 0.000000 -8.109882 58.961449 2.778360 0.000000 0.000000 0.000000 -3.875256 4.323428 2.807957 -16.259305 -25.870763 -3.758525 -16.323695 -2.776709 -6.570326 0.000000 0.000000 0.000000 7.125000 0.000000 0.000000 7.669187 23.151212 4.074114
